<svg id="Lagom_Full_Color" data-name="Lagom Full Color" xmlns="http://www.w3.org/2000/svg" viewBox="0 0 262 192"><title>logom_icon</title><g id="Icon"><path d="M261,84l-70,34,70,34S260.78,84.27,261,84Z" fill="#652b7c"/><polygon points="121 152 191 118 121 84 121 152" fill="#652b7c"/><path d="M191,118l70,34c-0.27,0-41.76,25-60.63,36.24a17.64,17.64,0,0,1-18,0C163.47,177,121,152,121,152Z" fill="#421540"/><path d="M200.23,47.65C219.09,58.88,261,84,261,84l-70,34L121,84c0.27,0,42.31-25.12,61.18-36.36A17.64,17.64,0,0,1,200.23,47.65Z" fill="#bf97c6"/><path d="M145,20.58l-35,17,35,17S144.89,20.72,145,20.58Z" fill="#652b7c"/><polygon points="75 54.58 110 37.58 75 20.58 75 54.58" fill="#652b7c"/><path d="M110,37.58l35,17c-0.14,0-20.88,12.5-30.31,18.12a8.82,8.82,0,0,1-9,0C96.23,67.08,75,54.58,75,54.58Z" fill="#421540"/><path d="M114.61,2.4C124,8,145,20.58,145,20.58l-35,17-35-17C75.14,20.59,96.16,8,105.59,2.4A8.82,8.82,0,0,1,114.61,2.4Z" fill="#bf97c6"/><path d="M101,91L51,115.54l50,24.53S100.84,91.21,101,91Z" fill="#652b7c"/><polygon points="1 140.07 51 115.54 1 91.02 1 140.07" fill="#652b7c"/><path d="M51,115.54l50,24.53c-0.19,0-29.83,18-43.3,26.14a12.5,12.5,0,0,1-12.89,0C31.34,158.1,1,140.07,1,140.07Z" fill="#421540"/><path d="M57.59,64.79C71.06,72.9,101,91,101,91L51,115.54,1,91C1.19,91,31.22,72.9,44.7,64.79A12.5,12.5,0,0,1,57.59,64.79Z" fill="#bf97c6"/></g></svg>